<svg width="20" height="20" viewBox="0 0 20 20" fill="none" xmlns="http://www.w3.org/2000/svg">
<path fill-rule="evenodd" clip-rule="evenodd" d="M19.4701 14.127C19.4205 13.94 19.3402 13.7626 19.2326 13.6019C19.2556 13.5173 19.2732 13.4313 19.285 13.3444C19.3614 12.7931 19.1703 12.2884 18.8101 11.8979C18.615 11.6846 18.4059 11.5437 18.1844 11.4573C18.3298 10.8352 18.4033 10.1985 18.4037 9.55977C18.4037 9.26797 18.3872 8.98217 18.3595 8.7006C18.3451 8.56001 18.3277 8.41978 18.3072 8.27992C18.2438 7.86727 18.1497 7.45987 18.0257 7.06124C17.9444 6.7993 17.8504 6.54147 17.744 6.28869C17.5845 5.91434 17.3982 5.55195 17.1867 5.20433C17.0479 4.97305 16.8968 4.7494 16.734 4.53438C16.6542 4.42579 16.5711 4.31977 16.4845 4.21647C16.2283 3.90501 15.9498 3.61254 15.6512 3.34134C15.5521 3.25016 15.4501 3.16211 15.3454 3.0773C15.2424 2.99135 15.137 2.90817 15.0295 2.82785C14.8132 2.66683 14.5897 2.51577 14.3596 2.37515C13.0883 1.60298 11.5974 1.16016 10.0039 1.16016C5.36432 1.16016 1.6041 4.92065 1.6041 9.56005C1.60392 10.2069 1.67883 10.8516 1.82735 11.4812C1.62809 11.5677 1.43713 11.7026 1.26 11.8977C0.899938 12.288 0.708698 12.7909 0.785176 13.3422C0.7968 13.4298 0.814235 13.5165 0.837483 13.6017C0.729926 13.7625 0.649721 13.94 0.600117 14.127C0.489414 14.5478 0.525854 14.9272 0.666539 15.2597C0.513584 15.6943 0.551777 16.157 0.75095 16.5593C0.895787 16.8532 1.10308 17.0805 1.35862 17.2836C1.66241 17.5251 2.04267 17.7303 2.50135 17.9272C3.04859 18.1606 3.7166 18.3799 4.02038 18.4603C4.80508 18.6635 5.5575 18.7923 6.32006 18.7985C7.40652 18.8086 8.34214 18.5531 9.01199 17.8993C9.34105 17.9396 9.67233 17.9599 10.0039 17.9597C10.3542 17.9589 10.7041 17.9369 11.0517 17.8937C11.72 18.5517 12.6592 18.8094 13.7496 18.7991C14.5121 18.793 15.2645 18.6642 16.0472 18.4608C16.353 18.3803 17.0207 18.1611 17.5682 17.9277C18.0269 17.7305 18.4072 17.5253 18.713 17.2842C18.9666 17.0809 19.1737 16.8537 19.3186 16.5599C19.5198 16.1575 19.556 15.6947 19.4052 15.2602C19.5445 14.9277 19.5807 14.5474 19.4701 14.127ZM18.6915 15.2316C18.8457 15.5241 18.8555 15.8547 18.7195 16.1625C18.5732 16.4935 18.2729 16.7746 17.7554 17.0509C17.5431 17.1644 17.2941 17.2771 17.0041 17.3921C16.3851 17.6375 15.8187 17.7944 15.8136 17.7958C14.9952 18.0081 14.255 18.1159 13.6142 18.1159C12.5531 18.1159 11.7635 17.8231 11.2628 17.2448C10.4162 17.389 9.55192 17.394 8.70381 17.2595C8.52654 17.4603 8.31386 17.6261 8.06649 17.7565C7.61388 17.9955 7.04501 18.1159 6.36434 18.1159C5.72355 18.1159 4.98332 18.0081 4.16485 17.7958L4.16477 17.7958C4.15567 17.7932 3.59086 17.6366 2.97442 17.3921C1.97929 16.9975 1.46693 16.63 1.26065 16.1634C1.12458 15.8556 1.13453 15.525 1.28859 15.2325C1.30289 15.2053 1.31802 15.1788 1.33444 15.1531C1.24202 15.0144 1.18003 14.8576 1.15252 14.6932C1.12501 14.5287 1.13262 14.3603 1.17485 14.1989C1.23611 13.9662 1.36267 13.7726 1.53444 13.6337C1.45171 13.4977 1.39742 13.3463 1.37485 13.1888C1.32531 12.8462 1.43916 12.5038 1.69497 12.2251C1.80335 12.1069 1.93615 12.0177 2.08494 11.961C2.21012 11.9129 2.34667 11.8878 2.48954 11.8878H2.49567C2.26073 11.1344 2.14161 10.3497 2.14239 9.56056C2.14239 6.30145 4.14209 3.50961 6.98132 2.34468C7.89391 1.96995 8.8933 1.76332 9.94097 1.76332C14.247 1.76332 17.7375 5.25378 17.7375 9.55977C17.7382 10.3513 17.6181 11.1383 17.3815 11.8937C17.4192 11.89 17.4561 11.8882 17.4923 11.8881C17.8041 11.8881 18.0859 12.0076 18.2849 12.2246C18.5408 12.5033 18.6546 12.8457 18.6051 13.1883C18.5826 13.3459 18.5282 13.4972 18.4456 13.6332C18.6173 13.7722 18.7439 13.9658 18.8051 14.1985C18.8473 14.3598 18.855 14.5282 18.8275 14.6926C18.8001 14.857 18.7381 15.0138 18.6457 15.1525C18.662 15.1779 18.6775 15.2044 18.6915 15.2316ZM16.9313 9.55823V9.60353V9.64864C16.9313 9.66091 16.931 9.67327 16.9307 9.68554L16.9306 9.69375L16.9305 9.70332L16.93 9.72264L16.93 9.72272L16.9297 9.73102C16.9297 9.74071 16.9294 9.75049 16.929 9.75999L16.9288 9.76405C16.9288 9.7742 16.9284 9.78435 16.928 9.7944L16.9275 9.80639V9.8075C16.9265 9.83813 16.9252 9.86876 16.9237 9.89939L16.9232 9.90954L16.9208 9.95483V9.95539L16.9186 9.99155C16.9141 10.0649 16.9086 10.138 16.902 10.2107L16.8984 10.249V10.2503C16.897 10.2664 16.8953 10.2824 16.8936 10.2985L16.8927 10.3066L16.8895 10.3364L16.8812 10.4106L16.8765 10.4482L16.8707 10.4923L16.8697 10.5001C16.8655 10.5313 16.8611 10.5626 16.8564 10.5939V10.5943L16.8499 10.6366L16.8434 10.6784L16.8424 10.6845C16.8398 10.7005 16.8372 10.7164 16.8341 10.7323C16.8321 10.7425 16.8305 10.7527 16.8287 10.7628L16.8258 10.78C16.8203 10.8117 16.8145 10.8434 16.8084 10.875C16.8027 10.9051 16.7966 10.935 16.7906 10.9649L16.7905 10.9654L16.7904 10.9658C16.7871 10.9826 16.7835 10.9994 16.78 11.0162L16.7798 11.0168L16.7798 11.0169L16.7798 11.0169L16.7798 11.017L16.7698 11.0636C16.7663 11.0793 16.7628 11.0949 16.7592 11.1105C16.5625 10.9193 16.3019 10.815 16.0145 10.815C15.7537 10.815 15.4856 10.9014 15.2172 11.0715C15.0391 11.1846 14.8423 11.3851 14.6396 11.6369C14.4519 11.3766 14.1892 11.2035 13.8889 11.1563C13.8316 11.1472 13.7736 11.1426 13.7155 11.1426C13.0294 11.1426 12.6165 11.7379 12.4603 12.2734C12.3828 12.4544 12.0111 13.2784 11.4518 13.8373C10.6033 14.6851 10.3885 15.5597 10.8035 16.4963L10.7641 16.501C10.7064 16.5079 10.6486 16.514 10.5907 16.5191L10.556 16.5223L10.5244 16.5249L10.4795 16.5285L10.4301 16.5321L10.3805 16.5354L10.3696 16.5361L10.3552 16.5369L10.3307 16.5382L10.3142 16.5392L10.3029 16.5398C10.2913 16.5404 10.2798 16.5409 10.2681 16.5414L10.2145 16.5438L10.1658 16.5454L10.1334 16.5463H10.1169C10.1114 16.5463 10.1059 16.5464 10.1005 16.5466L10.1004 16.5466L10.0865 16.547H10.0705H10.0704C10.0602 16.547 10.0501 16.547 10.04 16.5475L9.99878 16.5479H9.94103C9.8866 16.548 9.83227 16.5474 9.77784 16.5461L9.76898 16.5458C9.76077 16.5458 9.75256 16.5455 9.74435 16.5451L9.73789 16.545L9.69924 16.5439L9.65108 16.542L9.60782 16.5401L9.59656 16.5396L9.55532 16.5375L9.54222 16.5368L9.5211 16.5355L9.49444 16.5339C9.46086 16.5318 9.42737 16.5294 9.39397 16.5268L9.35892 16.524L9.32082 16.5208L9.31473 16.5202C9.29811 16.5188 9.28166 16.5172 9.26514 16.5157L9.26298 16.5154C9.23392 16.5128 9.20504 16.5098 9.17635 16.5066H9.17487C9.59656 15.566 9.38336 14.6877 8.53132 13.8365C7.97079 13.279 7.59911 12.455 7.52198 12.2741C7.36589 11.7386 6.9527 11.1433 6.26671 11.1433C6.20869 11.1434 6.15077 11.1479 6.09346 11.1569C5.7929 11.2041 5.53017 11.3772 5.34271 11.6376C5.14012 11.3856 4.94326 11.1853 4.76521 11.0722C4.49675 10.902 4.22893 10.8157 3.96786 10.8157C3.64211 10.8157 3.35097 10.9494 3.14801 11.1921L3.14284 11.1982L3.13445 11.1627L3.13151 11.1503L3.13104 11.1482C3.09221 10.9819 3.05959 10.8142 3.03325 10.6455L3.02781 10.61L3.02744 10.6075C3.02172 10.5701 3.01639 10.5325 3.01148 10.4949L3.00935 10.4786L3.00475 10.4438L2.99847 10.3926L2.99284 10.3438L2.99239 10.3396C2.98505 10.2733 2.97862 10.2068 2.9731 10.1403C2.97239 10.1331 2.97186 10.1257 2.97134 10.1183L2.97133 10.1183L2.97126 10.1173L2.97098 10.1147L2.96793 10.0749L2.96766 10.0712C2.96662 10.0574 2.9657 10.0436 2.9649 10.0298L2.9647 10.027C2.96354 10.0115 2.96265 9.99593 2.96176 9.98041L2.96176 9.9804L2.96176 9.98038L2.96167 9.97882C2.96056 9.96138 2.95963 9.94395 2.95871 9.9266L2.95862 9.92531L2.95612 9.87429V9.87217L2.95428 9.82854L2.95382 9.8147L2.95234 9.77254L2.95133 9.73665C2.95133 9.72789 2.95115 9.71903 2.95088 9.71026L2.95084 9.70928L2.95084 9.70926C2.95067 9.70407 2.9505 9.69895 2.9505 9.69375L2.95023 9.68185L2.94976 9.64864C2.94991 9.6336 2.94975 9.61856 2.9493 9.60353C2.94902 9.59347 2.94911 9.58342 2.9493 9.57336V9.55823C2.9493 5.69718 6.07953 2.56688 9.94085 2.56688C13.8023 2.56688 16.9313 5.697 16.9313 9.55823ZM7.96157 14.4071C8.72118 15.1664 8.76048 15.7758 8.20678 16.5878C7.43711 17.7159 5.23487 17.2393 4.36769 17.0144C4.34555 17.0087 1.66164 16.2496 2.00141 15.6047C2.18121 15.2636 2.73058 15.5659 3.23197 15.8418C3.67856 16.0876 4.08715 16.3124 4.16252 16.0428C4.2353 15.7829 3.74094 15.5914 3.20041 15.382L3.20022 15.3819L3.19999 15.3818L3.19998 15.3818L3.19997 15.3818L3.19996 15.3818L3.19995 15.3818C2.55111 15.1304 1.83583 14.8533 1.95464 14.4011C2.092 13.8784 3.06452 14.4623 3.80208 14.9052L3.80246 14.9055C4.23495 15.165 4.58652 15.3761 4.64158 15.2872C4.79075 15.0465 4.70903 14.8787 3.65818 14.2425C3.57579 14.1926 3.49535 14.1443 3.4173 14.0974L3.41689 14.0972C2.49865 13.5457 1.90284 13.1879 2.28932 12.767C2.70852 12.3103 4.63439 14.0629 4.63439 14.0629C4.63439 14.0629 5.24943 14.7025 5.42407 14.4084C5.51208 14.2604 5.10055 13.8419 4.65736 13.3913C4.22055 12.9472 3.753 12.4718 3.70272 12.1933C3.60152 11.6322 3.90347 11.4796 4.33281 11.7519C4.76215 12.0241 5.59032 13.4473 5.89364 14.001C6.19697 14.5547 7.14182 14.1546 6.3538 13.5647C5.56568 12.9747 5.8418 12.0109 6.21819 11.9517C6.59458 11.8925 6.75961 12.5374 6.75961 12.5374C6.75961 12.5374 7.20178 13.6478 7.96157 14.4071ZM12.019 14.4071C11.2593 15.1664 11.22 15.7758 11.7737 16.5878C12.5431 17.7159 14.7454 17.2393 15.6125 17.0136C15.6342 17.0081 18.3186 16.2497 17.9787 15.6044C17.799 15.2631 17.2496 15.5655 16.7483 15.8414L16.7482 15.8414C16.3017 16.0872 15.8932 16.312 15.8179 16.0425C15.7452 15.7826 16.2396 15.5911 16.7801 15.3817L16.7803 15.3816L16.7807 15.3815C17.4295 15.1301 18.1448 14.853 18.0259 14.4008C17.8885 13.8782 16.9165 14.4617 16.1789 14.9045L16.1789 14.9045L16.1783 14.9049L16.1774 14.9054C15.7453 15.1648 15.394 15.3758 15.3388 15.2868C15.1897 15.0462 15.2715 14.8784 16.3223 14.2422C16.4025 14.1938 16.4828 14.1454 16.5631 14.0972C17.4817 13.5456 18.0777 13.1876 17.6913 12.7668C17.2719 12.31 15.3461 14.0626 15.3461 14.0626C15.3461 14.0626 14.7306 14.7025 14.556 14.4084C14.4681 14.2604 14.8795 13.8421 15.3226 13.3916L15.3228 13.3914L15.3236 13.3905C15.7602 12.9466 16.2273 12.4716 16.2774 12.1933C16.3787 11.6322 16.0766 11.4796 15.6472 11.7519C15.2179 12.0241 14.3903 13.4473 14.0869 14.001C13.7835 14.5547 12.8387 14.1546 13.6268 13.5647C14.4148 12.9747 14.1387 12.0109 13.7623 11.9517C13.3859 11.8925 13.2209 12.5374 13.2209 12.5374C13.2209 12.5374 12.7787 13.6478 12.019 14.4071ZM7.47214 7.65541C7.36316 7.69395 7.2821 7.81127 7.20502 7.92284L7.20488 7.92304C7.10064 8.07406 7.00349 8.21447 6.85469 8.13532C6.63379 8.01834 6.46439 7.82322 6.37948 7.58816C6.29458 7.35304 6.30027 7.09474 6.39544 6.8636C6.49061 6.63245 6.66844 6.44504 6.89427 6.33787C7.1201 6.23071 7.37774 6.21149 7.61697 6.28395C7.80747 6.34131 7.97667 6.45386 8.10324 6.60735C8.22981 6.76085 8.30795 6.94842 8.32796 7.14635C8.34789 7.34428 8.30868 7.54369 8.21532 7.71934C8.14626 7.84909 7.99322 7.78794 7.83168 7.7234L7.83146 7.72331C7.70471 7.67257 7.57288 7.6198 7.47214 7.65541ZM12.2116 7.65541C12.3207 7.69397 12.4017 7.81132 12.4789 7.92304C12.5831 8.07397 12.6802 8.21447 12.8291 8.13532C13.0047 8.04187 13.1487 7.8985 13.2428 7.72322C13.337 7.54793 13.3771 7.34873 13.3581 7.15068C13.3439 7.0026 13.2971 6.85951 13.2209 6.73174C13.1447 6.60395 13.0411 6.49466 12.9176 6.41174C12.7941 6.32882 12.6537 6.27434 12.5066 6.25221C12.3595 6.23007 12.2093 6.24086 12.0669 6.28377C11.9244 6.32665 11.7933 6.40059 11.6829 6.50024C11.5725 6.5999 11.4855 6.72279 11.4283 6.86008C11.3711 6.99738 11.345 7.14566 11.3519 7.29423C11.3589 7.44286 11.3987 7.58797 11.4685 7.71934C11.5375 7.84915 11.6907 7.78789 11.8523 7.72322C11.979 7.67257 12.111 7.6198 12.2116 7.65541ZM12.5055 9.8143C12.5055 10.4095 12.2296 11.3758 11.4784 11.9676C11.264 11.5686 10.9032 11.2683 10.4719 11.1299C10.428 11.1158 10.3833 11.145 10.3379 11.1956C10.383 11.1455 10.4274 11.1168 10.471 11.1308C10.9022 11.2693 11.2629 11.5696 11.4773 11.9685C11.0861 12.2769 10.5661 12.4836 9.88883 12.4836C9.25256 12.4836 8.75495 12.3011 8.37266 12.0233L8.37321 12.0222C7.5677 11.4365 7.27422 10.4284 7.27422 9.81439C7.27422 9.33514 7.60235 9.49767 8.12549 9.75681L8.12553 9.75683C8.59057 9.98728 9.20977 10.294 9.88958 10.294C10.5691 10.294 11.1882 9.98744 11.6533 9.7571L11.6536 9.75692L11.6822 9.7428C12.189 9.49187 12.5055 9.3438 12.5055 9.8143ZM5.37697 8.60039C5.48399 8.58987 5.58675 8.55306 5.67613 8.49328C5.78364 8.42141 5.86753 8.31938 5.91703 8.19991C5.96651 8.08044 5.97948 7.94898 5.95427 7.82212C5.9291 7.69527 5.86686 7.57866 5.77543 7.48715C5.684 7.3957 5.56748 7.33338 5.44062 7.30813C5.31376 7.28287 5.18226 7.29582 5.06276 7.34532C4.94325 7.39483 4.84113 7.47866 4.76929 7.58623C4.7095 7.67562 4.67268 7.7784 4.66211 7.88541C4.65152 7.99243 4.66753 8.10037 4.70867 8.19972C4.74146 8.27916 4.78961 8.3513 4.85036 8.412C4.9111 8.4728 4.98325 8.52096 5.06265 8.55371C5.16198 8.59494 5.26995 8.611 5.37697 8.60039ZM14.7326 8.60039C14.8396 8.58987 14.9424 8.55306 15.0317 8.49328C15.1393 8.42141 15.2231 8.31938 15.2726 8.19991C15.3222 8.08044 15.3352 7.94898 15.3099 7.82212C15.2847 7.69527 15.2224 7.57876 15.1309 7.48733C15.0626 7.41892 14.9799 7.36652 14.8888 7.33389C14.7979 7.30128 14.7007 7.28927 14.6044 7.29874C14.5082 7.30819 14.4153 7.33889 14.3324 7.3886C14.2494 7.43835 14.1785 7.50578 14.1248 7.58623C14.0651 7.67562 14.0283 7.7784 14.0177 7.88541C14.0072 7.99243 14.0231 8.10037 14.0642 8.19972C14.097 8.27916 14.1452 8.3513 14.2059 8.412C14.2666 8.4728 14.3387 8.52086 14.4182 8.55371C14.5175 8.59494 14.6255 8.611 14.7326 8.60039ZM11.3823 11.8177C10.991 12.1261 10.5659 12.363 9.88868 12.363C9.25241 12.363 8.83321 12.1641 8.45091 11.8864C8.54803 11.7283 8.67016 11.5864 8.81237 11.4662C8.99604 11.3109 9.20988 11.1951 9.44033 11.1261C9.52072 11.1021 9.60356 11.2406 9.68838 11.3823C9.77022 11.5191 9.85389 11.659 9.93896 11.659C10.0296 11.659 10.1187 11.5212 10.2057 11.3866C10.2966 11.246 10.3851 11.109 10.4709 11.1363C10.8437 11.2562 11.1639 11.4969 11.3823 11.8177Z" fill="white"/>
</svg>
